<svg width="64" height="64" viewBox="0 0 64 64" fill="none" xmlns="http://www.w3.org/2000/svg">
<path d="M24.0007 58.6667H40.0007C53.334 58.6667 58.6673 53.3334 58.6673 40V24C58.6673 10.6667 53.334 5.33337 40.0007 5.33337H24.0007C10.6673 5.33337 5.33398 10.6667 5.33398 24V40C5.33398 53.3334 10.6673 58.6667 24.0007 58.6667Z" stroke="#212121" stroke-width="1.5" stroke-linecap="round" stroke-linejoin="round"/>
<path d="M41.334 26C43.5431 26 45.334 24.2091 45.334 22C45.334 19.7909 43.5431 18 41.334 18C39.1248 18 37.334 19.7909 37.334 22C37.334 24.2091 39.1248 26 41.334 26Z" stroke="#212121" stroke-width="1.5" stroke-miterlimit="10" stroke-linecap="round" stroke-linejoin="round"/>
<path d="M22.666 26C24.8752 26 26.666 24.2091 26.666 22C26.666 19.7909 24.8752 18 22.666 18C20.4569 18 18.666 19.7909 18.666 22C18.666 24.2091 20.4569 26 22.666 26Z" stroke="#212121" stroke-width="1.5" stroke-miterlimit="10" stroke-linecap="round" stroke-linejoin="round"/>
<path d="M22.4 35.4668H41.6C42.9333 35.4668 44 36.5335 44 37.8668C44 44.5068 38.64 49.8668 32 49.8668C25.36 49.8668 20 44.5068 20 37.8668C20 36.5335 21.0667 35.4668 22.4 35.4668Z" stroke="#212121" stroke-width="1.5" stroke-miterlimit="10" stroke-linecap="round" stroke-linejoin="round"/>
</svg>
