<svg width="60" height="60" viewBox="0 0 60 60" fill="none" xmlns="http://www.w3.org/2000/svg">
<path d="M52.7004 21.4501V38.55C52.7004 41.35 51.2004 43.9501 48.7754 45.3751L33.9254 53.9501C31.5004 55.3501 28.5004 55.3501 26.0504 53.9501L11.2004 45.3751C8.77539 43.9751 7.27539 41.375 7.27539 38.55V21.4501C7.27539 18.6501 8.77539 16.05 11.2004 14.625L26.0504 6.05C28.4754 4.65 31.4754 4.65 33.9254 6.05L48.7754 14.625C51.2004 16.05 52.7004 18.6251 52.7004 21.4501Z" stroke="#212121" stroke-width="1.5" stroke-linecap="round" stroke-linejoin="round"/>
<path d="M30.0008 27.5C33.2178 27.5 35.8258 24.892 35.8258 21.675C35.8258 18.4579 33.2178 15.8501 30.0008 15.8501C26.7837 15.8501 24.1758 18.4579 24.1758 21.675C24.1758 24.892 26.7837 27.5 30.0008 27.5Z" stroke="#212121" stroke-width="1.5" stroke-linecap="round" stroke-linejoin="round"/>
<path d="M40 41.65C40 37.15 35.525 33.5001 30 33.5001C24.475 33.5001 20 37.15 20 41.65" stroke="#212121" stroke-width="1.5" stroke-linecap="round" stroke-linejoin="round"/>
</svg>
