<svg width="269" height="269" viewBox="0 0 269 269" fill="none" xmlns="http://www.w3.org/2000/svg">
<mask id="mask0_327_248" style="mask-type:alpha" maskUnits="userSpaceOnUse" x="40" y="29" width="189" height="189">
<rect x="40.3496" y="29.59" width="188.3" height="188.3" fill="white"/>
</mask>
<g mask="url(#mask0_327_248)">
<path d="M225.614 209.892C220.612 214.874 212.925 216.007 203.28 213.184C193.635 210.361 182.349 203.674 170.489 193.756C158.628 183.838 146.584 171.015 135.494 156.498C124.403 141.982 114.632 126.25 107.102 110.789C99.5731 95.3271 94.5341 80.6459 92.4611 68.1312C90.3882 55.6164 91.3497 45.6809 95.2548 39.2627C99.16 32.8446 105.88 30.1554 114.78 31.4493C123.681 32.7431 134.468 37.9771 146.123 46.6573L147.719 54.4525C137.255 46.6596 127.57 41.9606 119.58 40.799C111.589 39.6374 105.556 42.0517 102.05 47.8138C98.5442 53.5759 97.681 62.4958 99.542 73.7313C101.403 84.9668 105.927 98.1473 112.687 112.028C119.446 125.909 128.219 140.033 138.176 153.066C148.133 166.099 158.946 177.611 169.594 186.515C180.242 195.419 190.374 201.422 199.033 203.957C207.692 206.491 214.593 205.474 219.084 201.001L225.614 209.892Z" fill="#4A00F2"/>
<path d="M44.1166 168.305C43.473 164.4 45.2099 159.617 49.1635 154.406C53.1171 149.196 59.1568 143.73 66.7125 138.525C74.2682 133.321 83.0905 128.549 92.3467 124.66C101.603 120.771 110.987 117.893 119.614 116.299C128.241 114.704 135.825 114.446 141.652 115.547C147.478 116.649 151.354 119.074 152.913 122.594C154.472 126.114 153.664 130.613 150.563 135.666C147.463 140.718 142.174 146.158 135.194 151.472L131.681 150.995C137.986 146.195 142.764 141.28 145.565 136.716C148.366 132.151 149.096 128.087 147.688 124.907C146.279 121.727 142.778 119.536 137.514 118.541C132.251 117.546 125.4 117.78 117.606 119.22C109.813 120.66 101.335 123.26 92.9737 126.773C84.612 130.286 76.6421 134.597 69.8165 139.299C62.9909 144.001 57.5348 148.938 53.9632 153.645C50.3917 158.352 48.8225 162.673 49.404 166.201L44.1166 168.305Z" fill="#4A00F2"/>
<path d="M223.674 132.501C224.318 136.406 222.581 141.189 218.627 146.4C214.674 151.61 208.634 157.076 201.079 162.281C193.523 167.485 184.7 172.257 175.444 176.146C166.188 180.035 156.804 182.913 148.177 184.507C139.55 186.102 131.966 186.36 126.139 185.259C120.313 184.157 116.437 181.732 114.878 178.212C113.319 174.692 114.127 170.193 117.228 165.14C120.328 160.088 125.617 154.648 132.597 149.334L137.295 149.972C131.217 154.599 126.611 159.336 123.912 163.736C121.212 168.136 120.508 172.054 121.866 175.119C123.224 178.184 126.598 180.296 131.672 181.255C136.745 182.214 143.35 181.989 150.862 180.601C158.374 179.212 166.546 176.707 174.606 173.32C182.666 169.934 190.348 165.778 196.928 161.246C203.507 156.714 208.766 151.955 212.209 147.417C215.652 142.88 217.164 138.715 216.604 135.315L223.674 132.501Z" fill="#4A00F2"/>
</g>
</svg>
